<svg width="151" height="581" viewBox="0 0 151 581" fill="none" xmlns="http://www.w3.org/2000/svg">
<path d="M2 1.68359C3.8235 7.15408 21.9483 9.26645 27.1087 12.4759C41.9911 21.732 47.4524 31.2374 57.2831 45.0731C73.8758 68.4259 84.994 98.9133 85.255 127.888C85.3982 143.784 86.3825 160.3 84.8145 176.123C83.0685 193.741 76.9541 212.194 73.3614 229.644C68.0485 255.449 56.0291 279.1 48.6933 304.309C40.8435 331.284 37.6807 355.852 37.6807 383.82C37.6807 405.657 36.3387 427.383 41.2047 448.794C44.4171 462.928 48.4445 476.32 52.4376 490.201C59.0137 513.061 69.7396 534.95 82.8322 554.735C88.8339 563.804 107.809 577.854 119.834 578.522C129.321 579.049 143.92 582.109 148.687 572.575" stroke="#A80000" stroke-width="3" stroke-linecap="round"/>
</svg>
