<svg width="1185" height="209" viewBox="0 0 1185 209" fill="none" xmlns="http://www.w3.org/2000/svg">
<path d="M239.784 25.5075C250.677 24.2466 261.706 23.0094 272.783 21.7984C267.218 22.5351 261.677 23.2794 256.176 24.0304C217.218 29.3478 180.165 35.0003 149.594 40.6569C119.07 46.3048 94.8757 51.9797 81.7262 57.3693C68.675 62.7186 58.1544 68.256 50.2282 73.9334C42.3157 79.601 36.8896 85.4787 34.1797 91.5444C31.4398 97.6775 31.5247 103.904 34.4493 110.042C37.3427 116.113 42.9725 122.018 51.1723 127.733C67.5682 139.161 94.2238 149.817 129.475 159.345C164.762 168.882 208.788 177.323 260.021 184.262C362.489 198.139 487.735 205.188 615.028 204.248C742.319 203.308 864.066 194.435 960.113 179.09C1008.14 171.417 1048.33 162.352 1079.33 152.316C1110.27 142.301 1132.28 131.253 1143.72 119.494C1149.47 113.587 1152.58 107.468 1152.8 101.211C1153.02 94.9454 1150.33 88.8347 1145.09 82.9712C1134.67 71.3162 1113.77 60.1865 1083.17 49.9471C1048.41 38.319 992.693 26.3 929.505 16.4427C942.29 17.9763 954.869 19.5768 967.135 21.2412C1027.12 29.3809 1079.5 39.0347 1111.77 49.8302C1144.15 60.663 1165.63 72.2589 1176.1 83.9739C1181.3 89.7954 1183.69 95.5307 1183.49 101.146C1183.29 106.77 1180.5 112.567 1174.74 118.484C1163.17 130.375 1140.47 141.903 1107.73 152.499C1075.06 163.074 1032.61 172.656 981.788 180.776C880.143 197.015 751.217 206.416 616.363 207.412C481.511 208.408 348.863 200.939 240.392 186.249C186.156 178.904 139.614 169.976 102.368 159.909C65.0854 149.832 37.2418 138.645 20.3049 126.839C11.8384 120.938 6.34338 115.052 3.59648 109.287C0.880867 103.589 0.81023 97.933 3.34239 92.2651C5.90466 86.5297 11.1783 80.6876 19.3364 74.8442C27.4808 69.0105 38.4015 63.2456 52.1056 57.6287C65.6937 52.0594 91.4637 46.4653 124.518 41.0374C157.518 35.6183 197.626 30.3874 239.784 25.5075Z" stroke="black" stroke-width="3"/>
</svg>
