<svg width="1185" height="217" viewBox="0 0 1185 217" fill="none" xmlns="http://www.w3.org/2000/svg">
<path d="M902 2C950.574 10.1047 1080.36 47.3461 1111.47 57.7299C1142.65 68.1348 1164.21 79.3971 1175.19 90.9792C1180.65 96.7411 1183.3 102.387 1183.49 107.87C1183.68 113.345 1181.41 118.933 1176.47 124.605C1166.53 136.022 1146.11 147.345 1115.3 157.97C1053.78 179.184 955.322 196.083 835.386 205.959C715.477 215.834 581.022 218.121 453.223 212.458C325.413 206.795 211.585 193.505 129.668 174.702C88.7001 165.298 56.9573 154.8 35.2718 143.693C24.4279 138.139 16.1657 132.467 10.5255 126.756C4.88668 121.047 1.95417 115.391 1.54897 109.841C1.14528 104.312 3.23686 98.6981 7.9973 93.0145C12.7708 87.3152 20.1699 81.6234 30.186 76.0255C50.2157 64.8314 80.3943 54.186 119.973 44.5854C199.104 25.3903 418.062 8.28692 545 2" stroke="black" stroke-width="3"/>
</svg>
